<svg xmlns="http://www.w3.org/2000/svg" xmlns:svg="http://www.w3.org/2000/svg" xmlns:xlink="http://www.w3.org/1999/xlink" id="svg2438" width="48" height="48" version="1.0"><defs id="defs2440"><linearGradient id="linearGradient2047"><stop id="stop2049" offset="0" style="stop-color:#f3e285;stop-opacity:1"/><stop id="stop2051" offset="1" style="stop-color:#d9bc1a;stop-opacity:1"/></linearGradient><linearGradient id="linearGradient2789"><stop id="stop2791" offset="0" style="stop-color:#fff;stop-opacity:1"/><stop id="stop2793" offset="1" style="stop-color:#fff;stop-opacity:0"/></linearGradient><linearGradient id="linearGradient3534"><stop id="stop3536" offset="0" style="stop-color:#fff;stop-opacity:.55223882"/><stop id="stop3538" offset="1" style="stop-color:#fff;stop-opacity:0"/></linearGradient><radialGradient id="radialGradient2431" cx="59.668" cy="49.354" r="55.015" fx="59.668" fy="49.354" gradientTransform="matrix(1,0,0,0.924744,0,5.011098)" gradientUnits="userSpaceOnUse" xlink:href="#linearGradient2047"/><linearGradient id="linearGradient2433" x1="38.77" x2="88.825" y1="26.561" y2="73.672" gradientUnits="userSpaceOnUse" xlink:href="#linearGradient2789"/><linearGradient id="linearGradient2435" x1="69.003" x2="69.003" y1="11.362" y2="67.994" gradientTransform="matrix(0.3633659,0,0,0.3633659,-3.166266,-3.6738341)" gradientUnits="userSpaceOnUse" xlink:href="#linearGradient3534"/><radialGradient id="radialGradient2445" cx="59.668" cy="49.354" r="55.015" fx="59.668" fy="49.354" gradientTransform="matrix(1,0,0,0.924744,0,5.011098)" gradientUnits="userSpaceOnUse" xlink:href="#linearGradient2047"/><linearGradient id="linearGradient2447" x1="38.77" x2="88.825" y1="26.561" y2="73.672" gradientUnits="userSpaceOnUse" xlink:href="#linearGradient2789"/><linearGradient id="linearGradient2449" x1="69.003" x2="69.003" y1="11.362" y2="67.994" gradientTransform="matrix(0.3633659,0,0,0.3633659,-3.166266,-3.6738341)" gradientUnits="userSpaceOnUse" xlink:href="#linearGradient3534"/><radialGradient id="radialGradient2459" cx="59.668" cy="49.354" r="55.015" fx="59.668" fy="49.354" gradientTransform="matrix(1,0,0,0.924744,0,5.011098)" gradientUnits="userSpaceOnUse" xlink:href="#linearGradient2047"/><linearGradient id="linearGradient2461" x1="38.77" x2="88.825" y1="26.561" y2="73.672" gradientUnits="userSpaceOnUse" xlink:href="#linearGradient2789"/><linearGradient id="linearGradient2463" x1="69.003" x2="69.003" y1="11.362" y2="67.994" gradientTransform="matrix(0.3633659,0,0,0.3633659,-3.166266,-3.6738341)" gradientUnits="userSpaceOnUse" xlink:href="#linearGradient3534"/></defs><g id="layer1"><g id="g2426" transform="matrix(0.6757438,0,0,0.6757438,0.1171535,6.2852576)"><path id="path1317" d="M 125.5849,66.587601 A 53.822102,49.681938 0 1 1 17.940701,66.587601 A 53.822102,49.681938 0 1 1 125.5849,66.587601 z" transform="matrix(0.4146099,0,0,0.4405231,-6.0914754,-5.1759156)" style="opacity:1;fill:url(#radialGradient2431);fill-opacity:1;fill-rule:evenodd;stroke:#b98a33;stroke-width:2.55071115;stroke-linecap:round;stroke-linejoin:round;marker:none;marker-start:none;marker-mid:none;marker-end:none;stroke-miterlimit:4;stroke-dasharray:none;stroke-dashoffset:0;stroke-opacity:1;visibility:visible;display:inline;overflow:visible"/><path id="path2785" d="M 125.5849,66.587601 A 53.822102,49.681938 0 1 1 17.940701,66.587601 A 53.822102,49.681938 0 1 1 125.5849,66.587601 z" transform="matrix(0.3950837,0,0,0.4197763,-4.690217,-3.7944489)" style="opacity:1;fill:none;fill-opacity:1;fill-rule:evenodd;stroke:url(#linearGradient2433);stroke-width:2.69908166;stroke-linecap:round;stroke-linejoin:round;marker:none;marker-start:none;marker-mid:none;marker-end:none;stroke-miterlimit:4;stroke-dasharray:none;stroke-dashoffset:0;stroke-opacity:1;visibility:visible;display:inline;overflow:visible"/><path id="path2797" d="M 39.708955,14.629624 C 39.708955,19.819782 32.632285,24.032084 23.912821,24.032084 C 15.193355,24.032084 8.1166873,19.819782 8.1166873,14.629624 C 8.1166873,9.4394671 15.193355,4.4749676 23.912821,4.4749676 C 32.632285,4.4749676 39.708955,9.4394671 39.708955,14.629624 z" style="fill:url(#linearGradient2435);fill-opacity:1;fill-rule:evenodd;stroke:none;stroke-width:3.0250001;stroke-linecap:round;stroke-linejoin:round;marker:none;marker-start:none;marker-mid:none;marker-end:none;stroke-miterlimit:4;stroke-dashoffset:0;stroke-opacity:1;visibility:visible;display:inline;overflow:visible"/></g><g id="g2437" transform="matrix(0.6757438,0,0,0.6757438,11.736602,14.191245)"><path id="path2439" d="M 125.5849,66.587601 A 53.822102,49.681938 0 1 1 17.940701,66.587601 A 53.822102,49.681938 0 1 1 125.5849,66.587601 z" transform="matrix(0.4146099,0,0,0.4405231,-6.0914754,-5.1759156)" style="opacity:1;fill:url(#radialGradient2445);fill-opacity:1;fill-rule:evenodd;stroke:#b98a33;stroke-width:2.55071115;stroke-linecap:round;stroke-linejoin:round;marker:none;marker-start:none;marker-mid:none;marker-end:none;stroke-miterlimit:4;stroke-dasharray:none;stroke-dashoffset:0;stroke-opacity:1;visibility:visible;display:inline;overflow:visible"/><path id="path2441" d="M 125.5849,66.587601 A 53.822102,49.681938 0 1 1 17.940701,66.587601 A 53.822102,49.681938 0 1 1 125.5849,66.587601 z" transform="matrix(0.3950837,0,0,0.4197763,-4.690217,-3.7944489)" style="opacity:1;fill:none;fill-opacity:1;fill-rule:evenodd;stroke:url(#linearGradient2447);stroke-width:2.69908166;stroke-linecap:round;stroke-linejoin:round;marker:none;marker-start:none;marker-mid:none;marker-end:none;stroke-miterlimit:4;stroke-dasharray:none;stroke-dashoffset:0;stroke-opacity:1;visibility:visible;display:inline;overflow:visible"/><path id="path2443" d="M 39.708955,14.629624 C 39.708955,19.819782 32.632285,24.032084 23.912821,24.032084 C 15.193355,24.032084 8.1166873,19.819782 8.1166873,14.629624 C 8.1166873,9.4394671 15.193355,4.4749676 23.912821,4.4749676 C 32.632285,4.4749676 39.708955,9.4394671 39.708955,14.629624 z" style="fill:url(#linearGradient2449);fill-opacity:1;fill-rule:evenodd;stroke:none;stroke-width:3.0250001;stroke-linecap:round;stroke-linejoin:round;marker:none;marker-start:none;marker-mid:none;marker-end:none;stroke-miterlimit:4;stroke-dashoffset:0;stroke-opacity:1;visibility:visible;display:inline;overflow:visible"/></g><g id="g2451" transform="matrix(0.6757438,0,0,0.6757438,15.501461,1.5451827)"><path id="path2453" d="M 125.5849,66.587601 A 53.822102,49.681938 0 1 1 17.940701,66.587601 A 53.822102,49.681938 0 1 1 125.5849,66.587601 z" transform="matrix(0.4146099,0,0,0.4405231,-6.0914754,-5.1759156)" style="opacity:1;fill:url(#radialGradient2459);fill-opacity:1;fill-rule:evenodd;stroke:#b98a33;stroke-width:2.55071115;stroke-linecap:round;stroke-linejoin:round;marker:none;marker-start:none;marker-mid:none;marker-end:none;stroke-miterlimit:4;stroke-dasharray:none;stroke-dashoffset:0;stroke-opacity:1;visibility:visible;display:inline;overflow:visible"/><path id="path2455" d="M 125.5849,66.587601 A 53.822102,49.681938 0 1 1 17.940701,66.587601 A 53.822102,49.681938 0 1 1 125.5849,66.587601 z" transform="matrix(0.3950837,0,0,0.4197763,-4.690217,-3.7944489)" style="opacity:1;fill:none;fill-opacity:1;fill-rule:evenodd;stroke:url(#linearGradient2461);stroke-width:2.69908166;stroke-linecap:round;stroke-linejoin:round;marker:none;marker-start:none;marker-mid:none;marker-end:none;stroke-miterlimit:4;stroke-dasharray:none;stroke-dashoffset:0;stroke-opacity:1;visibility:visible;display:inline;overflow:visible"/><path id="path2457" d="M 39.708955,14.629624 C 39.708955,19.819782 32.632285,24.032084 23.912821,24.032084 C 15.193355,24.032084 8.1166873,19.819782 8.1166873,14.629624 C 8.1166873,9.4394671 15.193355,4.4749676 23.912821,4.4749676 C 32.632285,4.4749676 39.708955,9.4394671 39.708955,14.629624 z" style="fill:url(#linearGradient2463);fill-opacity:1;fill-rule:evenodd;stroke:none;stroke-width:3.0250001;stroke-linecap:round;stroke-linejoin:round;marker:none;marker-start:none;marker-mid:none;marker-end:none;stroke-miterlimit:4;stroke-dashoffset:0;stroke-opacity:1;visibility:visible;display:inline;overflow:visible"/></g></g></svg>