<svg xmlns="http://www.w3.org/2000/svg" xmlns:svg="http://www.w3.org/2000/svg" xmlns:xlink="http://www.w3.org/1999/xlink" id="svg2926" width="125" height="75" version="1.0" xml:space="preserve"><metadata id="metadata249"/><defs id="defs2929"><linearGradient id="linearGradient4221"><stop id="stop4223" offset="0" style="stop-color:#000;stop-opacity:1"/><stop id="stop4225" offset="1" style="stop-color:#000;stop-opacity:0"/></linearGradient><clipPath id="clipPath2941"><path id="path2943" d="M 0,60 L 100,60 L 100,0 L 0,0 L 0,60 z"/></clipPath><radialGradient id="radialGradient2965" cx="0" cy="0" r="1" fx="0" fy="0" gradientTransform="matrix(53.1387, -29.0957, -33.1154, -46.6834, 41.2515, 49.5205)" gradientUnits="userSpaceOnUse" spreadMethod="pad"><stop id="stop2967" offset="0" style="stop-color:#c8c8c8;stop-opacity:1"/><stop id="stop2969" offset="1" style="stop-color:#f0f0e6;stop-opacity:1"/></radialGradient><clipPath id="clipPath2977"><path id="path2979" d="M 0,60 L 100,60 L 100,0 L 0,0 L 0,60 z"/></clipPath><radialGradient id="radialGradient2997" cx="0" cy="0" r="1" fx="0" fy="0" gradientTransform="matrix(11.347, -6.21358, 4.8228, 6.79803, 25.5957, 29.5991)" gradientUnits="userSpaceOnUse" spreadMethod="pad"><stop id="stop2999" offset="0" style="stop-color:#fff;stop-opacity:1"/><stop id="stop3001" offset="1" style="stop-color:#c8c8c8;stop-opacity:1"/></radialGradient><clipPath id="clipPath3009"><path id="path3011" d="M 0,60 L 100,60 L 100,0 L 0,0 L 0,60 z"/></clipPath><clipPath id="clipPath3021"><path id="path3023" d="M 12.6836,34.5303 L 35.3853,34.5303 L 35.3853,16.1943 L 12.6836,16.1943 L 12.6836,34.5303 z"/></clipPath><radialGradient id="radialGradient3045" cx="0" cy="0" r="1" fx="0" fy="0" gradientTransform="matrix(6.03993, -3.30727, 3.76418, 5.30595, 31.6938, 38.1919)" gradientUnits="userSpaceOnUse" spreadMethod="pad"><stop id="stop3047" offset="0" style="stop-color:#fff;stop-opacity:1"/><stop id="stop3049" offset="1" style="stop-color:#c8c8c8;stop-opacity:1"/></radialGradient><clipPath id="clipPath3057"><path id="path3059" d="M 0,60 L 100,60 L 100,0 L 0,0 L 0,60 z"/></clipPath><clipPath id="clipPath3069"><path id="path3071" d="M 24.2422,42.9629 L 40.0811,42.9629 L 40.0811,28.9434 L 24.2422,28.9434 L 24.2422,42.9629 z"/></clipPath><clipPath id="clipPath3085"><path id="path3087" d="M 12.4336,30.0757 L 19.2544,30.0757 L 19.2544,24.4033 L 12.4336,24.4033 L 12.4336,30.0757 z"/></clipPath><linearGradient id="linearGradient3093" x1="0" x2="1" y1="0" y2="0" gradientTransform="matrix(0.997879, -1.36813, 1.36813, 0.997879, 14.7334, 29.1538)" gradientUnits="userSpaceOnUse" spreadMethod="pad"><stop id="stop3095" offset="0" style="stop-color:#000;stop-opacity:1"/><stop id="stop3097" offset="1" style="stop-color:#000;stop-opacity:1"/></linearGradient><clipPath id="clipPath3117"><path id="path3119" d="M 29.2686,23.874 L 32.4722,23.874 L 32.4722,16.3643 L 29.2686,16.3643 L 29.2686,23.874 z"/></clipPath><linearGradient id="linearGradient3125" x1="0" x2="1" y1="0" y2="0" gradientTransform="matrix(1.36533, 0.171844, 0.171844, -1.36533, 30.8081, 20.1035)" gradientUnits="userSpaceOnUse" spreadMethod="pad"><stop id="stop3127" offset="0" style="stop-color:#000;stop-opacity:1"/><stop id="stop3129" offset="1" style="stop-color:#000;stop-opacity:1"/></linearGradient><clipPath id="clipPath3185"><path id="path3187" d="M 6.53223,53.7231 L 53.4297,53.7231 L 53.4297,12.5186 L 6.53223,12.5186 L 6.53223,53.7231 z"/></clipPath><radialGradient id="radialGradient3217" cx="0" cy="0" r="1" fx="0" fy="0" gradientTransform="matrix(62.8577, 0, 0, -55.2268, 69.8447, 51.1216)" gradientUnits="userSpaceOnUse" spreadMethod="pad"><stop id="stop3219" offset="0" style="stop-color:#99603f;stop-opacity:1"/><stop id="stop3221" offset="1" style="stop-color:#ecebc3;stop-opacity:1"/></radialGradient><clipPath id="clipPath3229"><path id="path3231" d="M 0,60 L 100,60 L 100,0 L 0,0 L 0,60 z"/></clipPath><radialGradient id="radialGradient3249" cx="0" cy="0" r="1" fx="0" fy="0" gradientTransform="matrix(13.4226, 0, 0, 8.04225, 68.5498, 26.8477)" gradientUnits="userSpaceOnUse" spreadMethod="pad"><stop id="stop3251" offset="0" style="stop-color:#e1ebc2;stop-opacity:1"/><stop id="stop3253" offset="1" style="stop-color:#b88c57;stop-opacity:1"/></radialGradient><clipPath id="clipPath3261"><path id="path3263" d="M 0,60 L 100,60 L 100,0 L 0,0 L 0,60 z"/></clipPath><clipPath id="clipPath3273"><path id="path3275" d="M 57.9756,30.3193 L 82.3516,30.3193 L 82.3516,16.2002 L 57.9756,16.2002 L 57.9756,30.3193 z"/></clipPath><radialGradient id="radialGradient3297" cx="0" cy="0" r="1" fx="0" fy="0" gradientTransform="matrix(7.1416, 0, 0, 6.27522, 68.5557, 37.0127)" gradientUnits="userSpaceOnUse" spreadMethod="pad"><stop id="stop3299" offset="0" style="stop-color:#ffebc2;stop-opacity:1"/><stop id="stop3301" offset="1" style="stop-color:#b88c57;stop-opacity:1"/></radialGradient><clipPath id="clipPath3309"><path id="path3311" d="M 0,60 L 100,60 L 100,0 L 0,0 L 0,60 z"/></clipPath><clipPath id="clipPath3321"><path id="path3323" d="M 62.3555,42.3574 L 78.252,42.3574 L 78.252,28.2881 L 62.3555,28.2881 L 62.3555,42.3574 z"/></clipPath><clipPath id="clipPath3337"><path id="path3339" d="M 59.1719,24.2939 L 62.8604,24.2939 L 62.8604,16.5508 L 59.1719,16.5508 L 59.1719,24.2939 z"/></clipPath><linearGradient id="linearGradient3345" x1="0" x2="1" y1="0" y2="0" gradientTransform="matrix(1.7233, -0.694824, 0.694824, 1.7233, 59.5732, 21.3662)" gradientUnits="userSpaceOnUse" spreadMethod="pad"><stop id="stop3347" offset="0" style="stop-color:#000;stop-opacity:1"/><stop id="stop3349" offset="1" style="stop-color:#000;stop-opacity:1"/></linearGradient><clipPath id="clipPath3369"><path id="path3371" d="M 77.5234,24.9883 L 81.4521,24.9883 L 81.4521,17.2979 L 77.5234,17.2979 L 77.5234,24.9883 z"/></clipPath><linearGradient id="linearGradient3377" x1="0" x2="1" y1="0" y2="0" gradientTransform="matrix(0.948334, 0.770844, 0.770844, -0.948334, 78.7725, 21.2061)" gradientUnits="userSpaceOnUse" spreadMethod="pad"><stop id="stop3379" offset="0" style="stop-color:#000;stop-opacity:1"/><stop id="stop3381" offset="1" style="stop-color:#000;stop-opacity:1"/></linearGradient><clipPath id="clipPath3437"><path id="path3439" d="M 46.6196,52.5786 L 93.7061,52.5786 L 93.7061,11.209 L 46.6196,11.209 L 46.6196,52.5786 z"/></clipPath><radialGradient id="radialGradient4227" cx="41.82" cy="66.039" r="61.811" fx="41.82" fy="66.039" gradientTransform="matrix(1, 0, 0, 0.434944, 0, 37.3155)" gradientUnits="userSpaceOnUse" xlink:href="#linearGradient4221"/><radialGradient id="radialGradient4244" cx="41.82" cy="66.039" r="61.811" fx="41.82" fy="66.039" gradientTransform="matrix(1, 0, 0, 0.434944, 0, 37.3155)" gradientUnits="userSpaceOnUse" xlink:href="#linearGradient4221"/></defs><g id="g2935" transform="matrix(1.25, 0, 0, -1.25, 0, 75)"><path id="path4242" d="M 103.63052,66.038605 A 61.810661,26.884192 0 1 1 -19.990807,66.038605 A 61.810661,26.884192 0 1 1 103.63052,66.038605 z" transform="matrix(0.489219, 0, 0, -0.899145, 48.6586, 84.1945)" style="opacity:1;fill:url(#radialGradient4244) #000;fill-opacity:1;fill-rule:nonzero;stroke:none;stroke-width:2;stroke-linecap:butt;stroke-linejoin:round;stroke-miterlimit:4;stroke-dasharray:none;stroke-dashoffset:0;stroke-opacity:1"/><path id="path3449" d="M 103.63052,66.038605 A 61.810661,26.884192 0 1 1 -19.990807,66.038605 A 61.810661,26.884192 0 1 1 103.63052,66.038605 z" transform="matrix(0.489219, 0, 0, -0.899145, 10.1475, 85.9408)" style="opacity:1;fill:url(#radialGradient4227) #000;fill-opacity:1;fill-rule:nonzero;stroke:none;stroke-width:2;stroke-linecap:butt;stroke-linejoin:round;stroke-miterlimit:4;stroke-dasharray:none;stroke-dashoffset:0;stroke-opacity:1"/><g id="g2937"><g id="g2939" clip-path="url(#clipPath2941)"><g id="g2945" transform="translate(42.8921, 49.8276)"><path id="path2947" d="M 0,0 C -11.576,6.34 -26.811,3.235 -34.029,-6.934 C -36.348,-10.213 -37.542,-13.823 -37.727,-17.428 C -38.794,-25.507 -34.66,-33.787 -26.287,-38.371 C -14.709,-44.708 0.524,-41.603 7.733,-31.44 C 10.061,-28.16 11.254,-24.545 11.439,-20.94 C 12.506,-12.862 8.374,-4.585 0,0" style="fill:#323232;fill-opacity:1;fill-rule:nonzero;stroke:none"/></g><g id="g2949" transform="translate(42.8921, 49.8276)"><path id="path2951" d="M 0,0 C -11.576,6.34 -26.811,3.235 -34.029,-6.934 C -36.348,-10.213 -37.542,-13.823 -37.727,-17.428 C -38.794,-25.507 -34.66,-33.787 -26.287,-38.371 C -14.709,-44.708 0.524,-41.603 7.733,-31.44 C 10.061,-28.16 11.254,-24.545 11.439,-20.94 C 12.506,-12.862 8.374,-4.585 0,0 z" style="fill:none;stroke:#323232;stroke-width:2.324;stroke-linecap:butt;stroke-linejoin:miter;stroke-miterlimit:4;stroke-dasharray:none;stroke-opacity:1"/></g></g></g><g id="g2953"><g id="g2955"><g id="g2961"><g id="g2963"><path id="path2971" d="M 9.027,44.597 C 1.808,34.428 5.35,21.046 16.925,14.712 L 16.925,14.712 C 28.493,8.375 43.727,11.48 50.945,21.643 L 50.945,21.643 C 58.154,31.818 54.621,45.199 43.047,51.535 L 43.047,51.535 C 38.982,53.762 34.467,54.824 30.005,54.824 L 30.005,54.824 C 21.762,54.823 13.704,51.197 9.027,44.597" style="fill:url(#radialGradient2965) #000;stroke:none"/></g></g></g></g><g id="g2973"><g id="g2975" clip-path="url(#clipPath2977)"><g id="g2981" transform="translate(50.9448, 21.6436)"><path id="path2983" d="M 0,0 C -7.218,-10.164 -22.452,-13.269 -34.02,-6.932 C -45.595,-0.598 -49.137,12.784 -41.917,22.954 C -34.708,33.127 -19.473,36.232 -7.898,29.891 C 3.676,23.555 7.209,10.174 0,0 z" style="fill:none;stroke:#787878;stroke-width:2.324;stroke-linecap:butt;stroke-linejoin:miter;stroke-miterlimit:4;stroke-dasharray:none;stroke-opacity:1"/></g></g></g><g id="g2985"><g id="g2987"><g id="g2993"><g id="g2995"><path id="path3003" d="M 11.986,28.063 C 11.501,24.802 13.413,23.127 16.072,21.672 L 16.072,21.672 L 24.951,16.813 C 27.464,15.44 30.531,14.887 33.071,16.691 L 33.071,16.691 C 35.497,18.407 37.74,22.978 34.517,29.431 L 34.517,29.431 L 24.019,35.185 C 16.188,35.141 12.461,31.255 11.986,28.063" style="fill:url(#radialGradient2997) #000;stroke:none"/></g></g></g></g><g id="g3005"><g id="g3007" clip-path="url(#clipPath3009)"><g id="g3013" transform="translate(16.0718, 21.6719)"><path id="path3015" d="M 0,0 L 8.879,-4.859 C 11.393,-6.231 14.459,-6.785 17,-4.98 C 19.425,-3.265 21.667,1.306 18.445,7.759 L 7.947,13.513 C 0.116,13.47 -3.61,9.583 -4.086,6.391 C -4.571,3.13 -2.659,1.455 0,0 z" style="fill:none;stroke:#787878;stroke-width:.748;stroke-linecap:round;stroke-linejoin:round;stroke-miterlimit:4;stroke-dasharray:none;stroke-opacity:1"/></g><g id="g3017"><g id="g3025"><g id="g3027" clip-path="url(#clipPath3021)" style="opacity:.215195"><g id="g3029" transform="translate(16.7217, 22.4043)"><path id="path3031" d="M 0,0 L 8.627,-4.723 C 10.839,-5.931 13.528,-6.416 15.768,-4.83 C 17.893,-3.324 19.649,0.806 16.815,6.474 L 7.181,11.752 C 0.301,11.713 -3.183,8.424 -3.6,5.615 C -4.018,2.751 -2.338,1.281 0,0 z" style="fill:none;stroke:#fff;stroke-width:.748;stroke-linecap:round;stroke-linejoin:round;stroke-miterlimit:4;stroke-dasharray:none;stroke-opacity:1"/></g></g></g></g></g></g><g id="g3033"><g id="g3035"><g id="g3041"><g id="g3043"><path id="path3051" d="M 24.912,39.919 L 24.912,39.916 C 22.417,36.398 23.641,31.769 27.649,29.58 L 27.649,29.58 C 31.646,27.393 36.914,28.47 39.408,31.987 L 39.408,31.987 L 39.408,31.992 C 41.902,35.51 40.679,40.134 36.671,42.326 L 36.671,42.326 C 35.27,43.092 33.712,43.457 32.172,43.457 L 32.172,43.457 C 29.321,43.457 26.531,42.204 24.912,39.919" style="fill:url(#radialGradient3045) #000;stroke:none"/></g></g></g></g><g id="g3053"><g id="g3055" clip-path="url(#clipPath3057)"><g id="g3061" transform="translate(39.4082, 31.9873)"><path id="path3063" d="M 0,0 C -2.494,-3.518 -7.763,-4.594 -11.759,-2.407 C -15.767,-0.218 -16.991,4.41 -14.496,7.928 L -14.496,7.933 C -12.002,11.451 -6.735,12.523 -2.737,10.339 C 1.271,8.146 2.494,3.522 0,0.005 L 0,0 z" style="fill:none;stroke:#787878;stroke-width:.748;stroke-linecap:round;stroke-linejoin:round;stroke-miterlimit:4;stroke-dasharray:none;stroke-opacity:1"/></g><g id="g3065"><g id="g3073"><g id="g3075" clip-path="url(#clipPath3069)" style="opacity:.126587"><g id="g3077" transform="translate(38.5151, 32.4722)"><path id="path3079" d="M 0,0 C -2.183,-3.085 -6.802,-4.025 -10.313,-2.11 C -13.826,-0.185 -14.903,3.873 -12.71,6.958 L -12.71,6.963 C -10.517,10.048 -5.91,10.99 -2.396,9.068 C 1.116,7.147 2.193,3.091 0.01,0.005 C 0.01,0.005 0,0.005 0,0 z" style="fill:none;stroke:#fff;stroke-width:.853;stroke-linecap:round;stroke-linejoin:round;stroke-miterlimit:4;stroke-dasharray:none;stroke-opacity:1"/></g></g></g></g><g id="g3081"><g id="g3099"><g id="g3101" clip-path="url(#clipPath3085)" style="opacity:.227844"><g id="g3103"><g id="g3105"><g id="g3107"><g id="g3109"><path id="path3111" d="M 13.005,24.403 C 12.249,25.373 12.461,26.599 12.461,26.599 C 15.285,29.207 19.254,30.076 19.254,30.076 C 19.254,30.076 13.995,26.403 13.005,24.403" style="fill:url(#linearGradient3093) #000;stroke:none"/></g></g></g></g></g></g></g><g id="g3113"><g id="g3131"><g id="g3133" clip-path="url(#clipPath3117)" style="opacity:.227844"><g id="g3135"><g id="g3137"><g id="g3139"><g id="g3141"><path id="path3143" d="M 29.269,16.381 C 30.599,16.24 31.82,17.025 31.82,17.025 C 33.129,20.434 32.063,23.874 32.063,23.874 C 32.063,23.874 30.822,18.082 29.269,16.381" style="fill:url(#linearGradient3125) #000;stroke:none"/></g></g></g></g></g></g></g><g id="g3173" transform="translate(45.7578, 37.3887)"><path id="path3175" d="M 0,0 C -0.141,0.392 -0.218,0.583 -0.388,0.96 C 0.694,1.339 1.235,1.528 2.317,1.906 C 2.517,1.463 2.608,1.237 2.773,0.777 C 1.665,0.467 1.109,0.312 0,0 M 3.181,0.892 C 3.012,1.362 2.917,1.592 2.714,2.044 C 2.976,2.136 3.107,2.181 3.369,2.272 C 3.58,1.803 3.676,1.565 3.851,1.079 C 3.583,1.004 3.449,0.967 3.181,0.892" style="fill:#787878;fill-opacity:1;fill-rule:nonzero;stroke:none"/></g><g id="g3177" transform="translate(47.4932, 35.1704)"><path id="path3179" d="M 0,0 C 0.031,0.004 0.045,0.007 0.077,0.011 C 0.04,0.239 0.02,0.353 -0.026,0.578 C -0.048,0.687 -0.088,0.77 -0.146,0.825 C -0.205,0.879 -0.27,0.899 -0.339,0.886 C -0.409,0.874 -0.46,0.833 -0.494,0.763 C -0.528,0.692 -0.533,0.601 -0.51,0.487 C -0.486,0.367 -0.464,0.284 -0.441,0.232 C -0.418,0.181 -0.375,0.124 -0.312,0.063 C -0.249,0.002 -0.145,-0.019 0,0 M -0.996,-1.212 C -1.03,-0.79 -1.055,-0.582 -1.121,-0.17 C -1.022,-0.158 -0.974,-0.15 -0.875,-0.138 C -0.99,-0.036 -1.081,0.066 -1.144,0.17 C -1.207,0.275 -1.254,0.412 -1.293,0.589 C -1.368,0.927 -1.352,1.21 -1.235,1.449 C -1.182,1.559 -1.104,1.654 -1,1.735 C -0.897,1.816 -0.776,1.873 -0.638,1.907 C -0.399,1.965 -0.175,1.92 0.033,1.762 C 0.271,1.583 0.447,1.28 0.539,0.856 C 0.605,0.552 0.633,0.398 0.684,0.087 C 0.715,0.091 0.73,0.093 0.762,0.097 C 0.895,0.114 0.985,0.168 1.028,0.266 C 1.07,0.364 1.072,0.52 1.029,0.731 C 1,0.879 0.959,0.992 0.914,1.067 C 0.868,1.143 0.794,1.223 0.693,1.307 C 0.847,1.636 0.919,1.804 1.055,2.145 C 1.256,1.99 1.416,1.809 1.529,1.605 C 1.643,1.403 1.738,1.132 1.806,0.792 C 2.041,-0.393 1.692,-1.044 0.963,-1.089 C 0.179,-1.138 -0.212,-1.163 -0.996,-1.212" style="fill:#787878;fill-opacity:1;fill-rule:nonzero;stroke:none"/></g><g id="g3181"><g id="g3189"><g id="g3191" clip-path="url(#clipPath3185)" style="opacity:.300003"><g id="g3193" transform="translate(30.0166, 51.5444)"><path id="path3195" d="M 0,0 L 0,0 C -7.317,0 -13.983,-3.24 -17.836,-8.674 C -23.948,-17.296 -20.94,-28.683 -11.121,-34.056 C -7.802,-35.881 -3.979,-36.842 -0.068,-36.842 C 7.247,-36.842 13.914,-33.603 17.765,-28.169 C 20.724,-24 21.656,-19.063 20.385,-14.258 C 19.124,-9.461 15.805,-5.384 11.061,-2.784 C 7.732,-0.961 3.909,0 0,0 M 0,2.179 C 4.239,2.179 8.518,1.174 12.37,-0.937 C 23.343,-6.947 26.711,-19.679 19.871,-29.325 C 15.437,-35.581 7.761,-39.026 -0.068,-39.026 C -4.299,-39.026 -8.588,-38.017 -12.441,-35.911 C -23.415,-29.896 -26.782,-17.165 -19.942,-7.524 C -15.498,-1.261 -7.832,2.179 0,2.179" style="fill:#fff;fill-opacity:1;fill-rule:nonzero;stroke:none"/></g></g></g></g><g id="g3197" transform="translate(83.3525, 48.6641)"><path id="path3199" d="M 0,0 C -11.622,6.36 -26.917,3.245 -34.151,-6.962 C -36.48,-10.254 -37.684,-13.878 -37.868,-17.493 C -38.946,-25.607 -34.792,-33.918 -26.383,-38.522 C -14.768,-44.878 0.524,-41.764 7.763,-31.56 C 10.103,-28.266 11.296,-24.641 11.48,-21.021 C 12.557,-12.908 8.404,-4.604 0,0" style="fill:#323232;fill-opacity:1;fill-rule:nonzero;stroke:none"/></g><g id="g3201" transform="translate(83.3525, 48.6641)"><path id="path3203" d="M 0,0 C -11.622,6.36 -26.917,3.245 -34.151,-6.962 C -36.48,-10.254 -37.684,-13.878 -37.868,-17.493 C -38.946,-25.607 -34.792,-33.918 -26.383,-38.522 C -14.768,-44.878 0.524,-41.764 7.763,-31.56 C 10.103,-28.266 11.296,-24.641 11.48,-21.021 C 12.557,-12.908 8.404,-4.604 0,0 z" style="fill:none;stroke:#323232;stroke-width:2.333;stroke-linecap:butt;stroke-linejoin:miter;stroke-miterlimit:4;stroke-dasharray:none;stroke-opacity:1"/></g></g></g><g id="g3205"><g id="g3207"><g id="g3213"><g id="g3215"><path id="path3223" d="M 45.367,31.899 C 45.367,19.87 56.465,10.112 70.157,10.112 L 70.157,10.112 C 83.847,10.112 94.949,19.87 94.949,31.899 L 94.949,31.899 C 94.949,43.924 83.847,53.676 70.157,53.676 L 70.157,53.676 C 56.465,53.676 45.367,43.924 45.367,31.899" style="fill:url(#radialGradient3217) #000;stroke:none"/></g></g></g></g><g id="g3225"><g id="g3227" clip-path="url(#clipPath3229)"><g id="g3233" transform="translate(94.9492, 31.8984)"><path id="path3235" d="M 0,0 C 0,-12.028 -11.103,-21.786 -24.792,-21.786 C -38.484,-21.786 -49.582,-12.028 -49.582,0 C -49.582,12.026 -38.484,21.777 -24.792,21.777 C -11.103,21.777 0,12.026 0,0 z" style="fill:none;stroke:#6f4708;stroke-width:2.333;stroke-linecap:butt;stroke-linejoin:miter;stroke-miterlimit:4;stroke-dasharray:none;stroke-opacity:1"/></g></g></g><g id="g3237"><g id="g3239"><g id="g3245"><g id="g3247"><path id="path3255" d="M 63.83,30.87 C 57.184,27.183 56.358,22.13 57.882,19.19 L 57.882,19.19 C 59.444,16.182 62.083,15.652 65.228,15.652 L 65.228,15.652 L 75.728,15.652 C 78.696,15.652 81.647,16.609 82.722,19.341 L 82.722,19.341 C 83.75,21.931 82.895,26.871 76.251,30.87 L 76.251,30.87 L 63.83,30.87 z" style="fill:url(#radialGradient3249) #000;stroke:none"/></g></g></g></g><g id="g3257"><g id="g3259" clip-path="url(#clipPath3261)"><g id="g3265" transform="translate(65.2275, 15.6523)"><path id="path3267" d="M 0,0 L 10.5,0 C 13.469,0 16.42,0.957 17.494,3.688 C 18.522,6.279 17.668,11.219 11.023,15.218 L -1.397,15.218 C -8.043,11.53 -8.869,6.478 -7.346,3.537 C -5.783,0.529 -3.145,0 0,0 z" style="fill:none;stroke:#6f4708;stroke-width:.751;stroke-linecap:round;stroke-linejoin:round;stroke-miterlimit:4;stroke-dasharray:none;stroke-opacity:1"/></g><g id="g3269"><g id="g3277"><g id="g3279" clip-path="url(#clipPath3273)" style="opacity:.215195"><g id="g3281" transform="translate(65.335, 16.5752)"><path id="path3283" d="M 0,0 L 10.208,0 C 12.829,0 15.409,0.844 16.352,3.242 C 17.251,5.521 16.264,9.854 10.422,13.369 L -0.98,13.369 C -6.822,10.125 -7.792,5.695 -6.453,3.104 C -5.085,0.47 -2.767,0 0,0 z" style="fill:none;stroke:#fff;stroke-width:.751;stroke-linecap:round;stroke-linejoin:round;stroke-miterlimit:4;stroke-dasharray:none;stroke-opacity:1"/></g></g></g></g></g></g><g id="g3285"><g id="g3287"><g id="g3293"><g id="g3295"><path id="path3303" d="M 61.736,35.324 L 61.736,35.32 C 61.736,31.157 65.579,27.789 70.313,27.789 L 70.313,27.789 C 75.038,27.789 78.881,31.166 78.872,35.324 L 78.872,35.324 L 78.872,35.334 C 78.872,39.489 75.029,42.856 70.303,42.856 L 70.303,42.856 C 65.568,42.852 61.736,39.48 61.736,35.324" style="fill:url(#radialGradient3297) #000;stroke:none"/></g></g></g></g><g id="g3305"><g id="g3307" clip-path="url(#clipPath3309)"><g id="g3313" transform="translate(78.8721, 35.3242)"><path id="path3315" d="M 0,0 C 0.009,-4.158 -3.834,-7.535 -8.559,-7.535 C -13.294,-7.535 -17.137,-4.167 -17.137,-0.005 L -17.137,0 C -17.137,4.156 -13.305,7.528 -8.569,7.532 C -3.843,7.532 0,4.166 0,0.01 L 0,0 z" style="fill:none;stroke:#6f4708;stroke-width:.751;stroke-linecap:round;stroke-linejoin:round;stroke-miterlimit:4;stroke-dasharray:none;stroke-opacity:1"/></g><g id="g3317"><g id="g3325"><g id="g3327" clip-path="url(#clipPath3321)" style="opacity:.126587"><g id="g3329" transform="translate(77.8242, 35.3242)"><path id="path3331" d="M 0,0 C 0,-3.649 -3.368,-6.604 -7.521,-6.608 C -11.665,-6.608 -15.032,-3.653 -15.041,-0.005 L -15.041,0 C -15.041,3.647 -11.675,6.605 -7.521,6.605 C -3.368,6.605 0,3.656 0,0.01 L 0,0 z" style="fill:none;stroke:#fff;stroke-width:.856;stroke-linecap:round;stroke-linejoin:round;stroke-miterlimit:4;stroke-dasharray:none;stroke-opacity:1"/></g></g></g></g><g id="g3333"><g id="g3351"><g id="g3353" clip-path="url(#clipPath3337)" style="opacity:.227844"><g id="g3355"><g id="g3357"><g id="g3359"><g id="g3361"><path id="path3363" d="M 60.969,16.551 C 59.734,17.025 59.172,18.166 59.172,18.166 C 60.007,21.703 62.86,24.294 62.86,24.294 C 62.86,24.294 60.6,18.72 60.969,16.551" style="fill:url(#linearGradient3345) #000;stroke:none"/></g></g></g></g></g></g></g><g id="g3365"><g id="g3383"><g id="g3385" clip-path="url(#clipPath3369)" style="opacity:.227844"><g id="g3387"><g id="g3389"><g id="g3391"><g id="g3393"><path id="path3395" d="M 79.668,17.298 C 80.89,17.803 81.452,19.04 81.452,19.04 C 80.512,22.552 77.523,24.988 77.523,24.988 C 77.523,24.988 79.969,19.473 79.668,17.298" style="fill:url(#linearGradient3377) #000;stroke:none"/></g></g></g></g></g></g></g><g id="g3433"><g id="g3441"><g id="g3443" clip-path="url(#clipPath3437)" style="opacity:.300003"><g id="g3445" transform="translate(70.1572, 50.2456)"><path id="path3447" d="M 0,0 C -11.692,0 -21.205,-8.23 -21.205,-18.347 C -21.205,-28.469 -11.692,-36.704 0,-36.704 C 11.698,-36.704 21.216,-28.469 21.216,-18.347 C 21.216,-8.23 11.698,0 0,0 M 0,2.333 C 12.981,2.333 23.549,-6.943 23.549,-18.347 C 23.549,-29.755 12.981,-39.037 0,-39.037 C -12.983,-39.037 -23.538,-29.755 -23.538,-18.347 C -23.538,-6.943 -12.983,2.333 0,2.333" style="fill:#fff;fill-opacity:1;fill-rule:nonzero;stroke:none"/></g></g></g></g></g></g></g></svg>