<svg xmlns="http://www.w3.org/2000/svg" xmlns:cc="http://web.resource.org/cc/" xmlns:svg="http://www.w3.org/2000/svg" xmlns:xlink="http://www.w3.org/1999/xlink" id="svg2" width="128" height="128"><defs id="defs4"><linearGradient id="linearGradient1311"><stop style="stop-color:#fff;stop-opacity:1" id="stop1313" offset="0"/><stop style="stop-color:#fff;stop-opacity:0" id="stop1315" offset="1"/></linearGradient><linearGradient id="linearGradient3031"><stop style="stop-color:#9acb75;stop-opacity:1" id="stop3033" offset="0"/><stop style="stop-color:#659538;stop-opacity:1" id="stop3035" offset="1"/></linearGradient><linearGradient id="linearGradient2819" x1="10.648" x2="23.011" y1="18.809" y2="30.712" gradientUnits="userSpaceOnUse" xlink:href="#linearGradient3031"/><linearGradient id="linearGradient1317" x1="13.626" x2="23.116" y1="22.078" y2="31.569" gradientUnits="userSpaceOnUse" xlink:href="#linearGradient1311"/></defs><metadata id="metadata7"/><g id="layer1"><g id="g1575" transform="matrix(1.728684,1.728684,-1.728684,1.728684,69.46844,-24.83875)"><path id="rect1355" d="M 7.3012825,42.436671 C 10.917652,46.053041 35.275766,41.303064 35.275766,41.303064 C 37.853109,38.725720 34.960925,33.565811 32.880616,31.485502 C 35.962465,28.313937 39.044314,25.142372 42.126163,21.970807 C 47.788587,16.308383 33.349047,2.4199488 27.962176,7.8068194 L 18.312904,16.917791 C 16.232594,14.837480 11.010308,12.276827 8.6299185,14.657216 C 8.6299185,14.657216 3.5897555,38.725142 7.3012825,42.436671 z" style="color:#000;fill:url(#linearGradient2819);fill-opacity:1;fill-rule:nonzero;stroke:#5f7c32;stroke-width:3;stroke-linecap:round;stroke-linejoin:round;marker:none;marker-start:none;marker-mid:none;marker-end:none;stroke-miterlimit:4;stroke-dasharray:none;stroke-dashoffset:0;stroke-opacity:1;visibility:visible;display:inline;overflow:visible"/><path style="color:#000;fill:none;fill-opacity:1;fill-rule:nonzero;stroke:url(#linearGradient1317);stroke-width:2.5486424;stroke-linecap:round;stroke-linejoin:round;marker:none;marker-start:none;marker-mid:none;marker-end:none;stroke-miterlimit:4;stroke-dasharray:none;stroke-dashoffset:0;stroke-opacity:1;visibility:visible;display:inline;overflow:visible" id="path2825" d="M 9.7937643,40.208060 C 12.012177,42.426473 33.437435,38.879066 33.437435,38.879066 C 33.309377,36.933451 30.974309,33.159767 29.206988,31.392446 C 31.825164,28.698051 36.760975,23.320081 39.379152,20.625686 C 43.579746,16.791033 32.654459,6.5778987 28.931922,10.544398 L 19.026678,20.602233 C 17.259356,18.834910 12.944757,16.537533 11.044484,16.730076 C 11.044484,16.730076 7.6164908,38.152766 9.7937643,40.208060 z"/></g></g></svg>