<svg xmlns="http://www.w3.org/2000/svg" xmlns:cc="http://web.resource.org/cc/" xmlns:svg="http://www.w3.org/2000/svg" xmlns:xlink="http://www.w3.org/1999/xlink" id="svg2" width="128" height="128"><defs id="defs4"><linearGradient id="linearGradient1310"><stop style="stop-color:#fff;stop-opacity:1" id="stop1312" offset="0"/><stop style="stop-color:#fff;stop-opacity:0" id="stop1314" offset="1"/></linearGradient><linearGradient id="linearGradient2985"><stop style="stop-color:#6fb037;stop-opacity:1" id="stop2987" offset="0"/><stop style="stop-color:#5a8f2b;stop-opacity:1" id="stop2989" offset="1"/></linearGradient><linearGradient id="linearGradient2991" x1="73.676" x2="74.652" y1="48.469" y2="85.551" gradientUnits="userSpaceOnUse" xlink:href="#linearGradient2985"/><linearGradient id="linearGradient1316" x1="57.617" x2="63.035" y1="38.987" y2="65.898" gradientUnits="userSpaceOnUse" xlink:href="#linearGradient1310"/></defs><metadata id="metadata7"/><g id="layer1"><path style="color:#000;fill:url(#linearGradient2991);fill-opacity:1;fill-rule:nonzero;stroke:#5f7c32;stroke-width:7.3341851;stroke-linecap:round;stroke-linejoin:round;marker:none;marker-start:none;marker-mid:none;marker-end:none;stroke-miterlimit:4;stroke-dasharray:none;stroke-dashoffset:0;stroke-opacity:1;visibility:visible;display:inline;overflow:visible" id="rect1355" d="M 118.63846,61.142454 C 118.63846,73.645575 68.319774,107.54185 68.319774,107.54185 C 59.408949,107.54185 55.488769,93.622322 55.488769,86.429928 C 44.678592,86.274838 33.868415,86.119747 23.058239,85.964656 C 3.4811550,85.964656 4.4338428,36.994541 23.058238,36.994540 L 55.488770,36.063989 C 55.488769,28.871590 60.089891,15.417348 68.319773,15.417347 C 68.319773,15.417347 118.63846,48.310336 118.63846,61.142454 z"/><path id="path2825" d="M 110.47719,61.598604 C 110.47719,69.268473 67.307340,100.17363 67.307340,100.17363 C 64.165359,96.588903 61.678446,86.028801 61.678446,79.918522 C 52.494690,79.786763 34.665422,79.022410 25.481663,78.890653 C 11.591260,79.523250 12.822347,42.981599 26.114261,43.403333 L 60.624117,43.667114 C 60.624115,37.556830 64.111254,26.126813 67.729072,23.174687 C 67.729072,23.174687 110.68805,54.281832 110.47719,61.598604 z" style="color:#000;fill:none;fill-opacity:1;fill-rule:nonzero;stroke:url(#linearGradient1316);stroke-width:6.2307382;stroke-linecap:round;stroke-linejoin:round;marker:none;marker-start:none;marker-mid:none;marker-end:none;stroke-miterlimit:4;stroke-dasharray:none;stroke-dashoffset:0;stroke-opacity:1;visibility:visible;display:inline;overflow:visible"/></g></svg>